<svg width="1440" height="233" viewBox="0 0 1440 233" fill="none" xmlns="http://www.w3.org/2000/svg">
<path d="M1732 23.2175L1683.89 19.3721C1635.78 15.2365 1539.56 7.98102 1443.33 23.2175C1347.11 38.454 1250.89 77.6335 1154.67 108.324C1058.44 139.305 962.222 162.522 866 181.895C769.778 200.976 673.556 216.939 577.333 205.112C481.111 193.721 384.889 154.541 288.667 154.759C192.444 154.541 96.2223 193.721 48.1112 212.803L0 232.175V0H48.1112C96.2223 0 192.444 0 288.667 0C384.889 0 481.111 0 577.333 0C673.556 0 769.778 0 866 0C962.222 0 1058.44 0 1154.67 0C1250.89 0 1347.11 0 1443.33 0C1539.56 0 1635.78 0 1683.89 0H1732V23.2175Z" fill="#006F57"/>
</svg>
